<?xml version="1.0" encoding="iso-8859-1"?>
<!-- Generator: Adobe Illustrator 19.0.0, SVG Export Plug-In . SVG Version: 6.00 Build 0)  -->
<svg version="1.1" id="Layer_1" xmlns="http://www.w3.org/2000/svg" xmlns:xlink="http://www.w3.org/1999/xlink" x="0px" y="0px"
	 viewBox="0 0 511.999 511.999" style="enable-background:new 0 0 511.999 511.999;" xml:space="preserve">
<path style="fill:#A58868;" d="M305.835,488.445c-11.79,14.077-29.499,23.03-49.299,23.03s-37.509-8.953-49.3-23.03v-89.99h87.332
	L305.835,488.445z"/>
<path style="fill:#B29A7E;" d="M256,70.03L0,0.524c24.585,48.358,62.764,83.647,111.157,96.788
	c35.991,9.77,73.302,6.106,108.847-8.454v33.199h80.134V92c33.073,11.906,67.451,14.338,100.704,5.312
	c48.394-13.141,86.573-48.43,111.157-96.788L256,70.03z"/>
<path style="fill:#A58868;" d="M256,70.03v52.027h44.138V92c33.073,11.906,67.451,14.338,100.704,5.312
	c48.394-13.141,86.573-48.43,111.157-96.788L256,70.03z"/>
<path style="fill:#BFA993;" d="M256,411.311c0,53.251-43.168,96.418-96.418,96.418s-96.418-43.167-96.418-96.418v-0.535
	c0-184.602,51.423-334.249,192.836-334.249s192.836,149.647,192.836,334.249v0.535c0,53.251-43.168,96.418-96.418,96.418
	S256,464.562,256,411.311"/>
<path style="fill:#B29A7E;" d="M256,77.062v334.784c0,53.251,43.168,96.418,96.418,96.418s96.418-43.167,96.418-96.418v-0.535
	C448.836,226.709,397.413,77.062,256,77.062z"/>
<path style="fill:#454449;" d="M327.243,275.791h-0.004c-14.175,0-25.708-11.534-25.708-25.711
	c0.005-14.18,11.539-25.711,25.711-25.711c14.177,0,25.711,11.534,25.711,25.711C352.954,264.257,341.42,275.791,327.243,275.791z"
	/>
<g>
	<path style="fill:#58575D;" d="M185.83,275.791h-0.004c-14.175,0-25.708-11.534-25.708-25.711
		c0.005-14.18,11.539-25.711,25.711-25.711c14.177,0,25.711,11.534,25.711,25.711C211.541,264.257,200.007,275.791,185.83,275.791z"
		/>
	<path style="fill:#58575D;" d="M297.138,379.171c-6.757,20.504-24.863,43.109-41.138,43.454
		c-16.275-0.345-34.381-22.95-41.138-43.454c-3.121-10.476,4.947-19.146,17.998-19.284c15.427,0,30.854,0,46.281,0
		C292.194,360.025,300.26,368.694,297.138,379.171z"/>
</g>
<path style="fill:#454449;" d="M279.14,359.888c-7.713,0-15.427,0-23.14,0v62.737c16.275-0.345,34.381-22.95,41.138-43.454
	C300.26,368.694,292.194,360.025,279.14,359.888z"/>
<g>
</g>
<g>
</g>
<g>
</g>
<g>
</g>
<g>
</g>
<g>
</g>
<g>
</g>
<g>
</g>
<g>
</g>
<g>
</g>
<g>
</g>
<g>
</g>
<g>
</g>
<g>
</g>
<g>
</g>
</svg>
